<svg id="svg" version="1.1" xmlns="http://www.w3.org/2000/svg" xmlns:xlink="http://www.w3.org/1999/xlink" width="400" height="400" viewBox="0, 0, 400,400"><g id="svgg"><path id="path0" d="M27.344 28.817 C 13.962 33.143,3.881 43.815,0.789 56.928 C -1.452 66.430,-0.457 71.668,15.049 132.031 L 29.398 187.891 101.222 188.281 C 171.274 188.662,173.112 188.710,175.700 190.234 C 183.848 195.034,183.848 204.966,175.700 209.766 C 173.112 211.290,171.274 211.338,101.222 211.719 L 29.398 212.109 15.049 267.969 C -0.457 328.332,-1.452 333.570,0.789 343.072 C 5.611 363.520,26.878 376.562,47.656 371.815 C 51.713 370.888,373.019 237.788,380.078 234.110 C 385.868 231.094,392.923 224.238,395.525 219.099 C 405.544 199.315,398.649 175.565,380.078 165.890 C 373.019 162.212,51.713 29.112,47.656 28.185 C 42.182 26.934,32.207 27.245,27.344 28.817 " stroke="none" fill="#ed4b63" fill-rule="evenodd"></path></g></svg>